<mxfile host="app.diagrams.net" modified="2024-07-19T08:19:56.246Z" agent="Mozilla/5.0 (Windows NT 10.0; Win64; x64) AppleWebKit/537.36 (KHTML, like Gecko) Chrome/126.0.0.0 Safari/537.36" version="24.7.1" etag="8yfgNgWXlZvoD8p_t3_I" type="github">
  <diagram name="第 1 页" id="pRfI_ZhuQ0RrxUg5eA9S">
    <mxGraphModel>
      <root>
        <mxCell id="0" />
        <mxCell id="1" parent="0" />
      </root>
    </mxGraphModel>
  </diagram>
</mxfile>
